<?xml version="1.0" encoding="UTF-8" standalone="no"?>
<!-- Created with Inkscape (http://www.inkscape.org/) -->

<svg
   width="126.47083mm"
   height="126.73541mm"
   viewBox="0 0 126.47083 126.73541"
   version="1.1"
   id="svg5"
   inkscape:version="1.2 (dc2aedaf03, 2022-05-15)"
   sodipodi:docname="AOUMI_LOGO.svg"
   inkscape:export-filename="AOUMI_LOGO.png"
   inkscape:export-xdpi="96"
   inkscape:export-ydpi="96"
   xmlns:inkscape="http://www.inkscape.org/namespaces/inkscape"
   xmlns:sodipodi="http://sodipodi.sourceforge.net/DTD/sodipodi-0.dtd"
   xmlns="http://www.w3.org/2000/svg"
   xmlns:svg="http://www.w3.org/2000/svg">
  <sodipodi:namedview
     id="namedview7"
     pagecolor="#505050"
     bordercolor="#eeeeee"
     borderopacity="1"
     inkscape:showpageshadow="0"
     inkscape:pageopacity="0"
     inkscape:pagecheckerboard="0"
     inkscape:deskcolor="#505050"
     inkscape:document-units="mm"
     showgrid="false"
     inkscape:zoom="0.2771684"
     inkscape:cx="1053.5111"
     inkscape:cy="-220.08281"
     inkscape:window-width="1920"
     inkscape:window-height="1009"
     inkscape:window-x="2552"
     inkscape:window-y="-8"
     inkscape:window-maximized="1"
     inkscape:current-layer="layer1" />
  <defs
     id="defs2">
    <clipPath
       clipPathUnits="userSpaceOnUse"
       id="clipPath2467">
      <rect
         x="401"
         y="55.999989"
         width="478"
         height="648"
         id="rect2469"
         style="stroke-width:0.999999" />
    </clipPath>
    <clipPath
       clipPathUnits="userSpaceOnUse"
       id="clipPath2471">
      <rect
         x="401"
         y="55.999989"
         width="478"
         height="648"
         id="rect2473"
         style="stroke-width:0.999999" />
    </clipPath>
    <clipPath
       clipPathUnits="userSpaceOnUse"
       id="clipPath2475">
      <rect
         x="401"
         y="55.999989"
         width="478"
         height="648"
         id="rect2477"
         style="stroke-width:0.999999" />
    </clipPath>
    <clipPath
       clipPathUnits="userSpaceOnUse"
       id="clipPath2479">
      <rect
         x="-84"
         y="-346"
         width="478"
         height="648"
         id="rect2481"
         style="stroke-width:0.999999"
         transform="scale(1,-1)" />
    </clipPath>
    <clipPath
       clipPathUnits="userSpaceOnUse"
       id="clipPath2483">
      <rect
         x="-474"
         y="-177.00002"
         width="478"
         height="648"
         id="rect2485"
         style="stroke-width:0.999999"
         transform="scale(-1,1)" />
    </clipPath>
    <clipPath
       clipPathUnits="userSpaceOnUse"
       id="clipPath2487">
      <rect
         x="401"
         y="55.999989"
         width="478"
         height="648"
         id="rect2489"
         style="stroke-width:0.999999" />
    </clipPath>
    <clipPath
       clipPathUnits="userSpaceOnUse"
       id="clipPath2491">
      <rect
         x="-295"
         y="-82.000015"
         width="478"
         height="648"
         id="rect2493"
         style="stroke-width:0.999999"
         transform="scale(-1,1)" />
    </clipPath>
  </defs>
  <g
     inkscape:label="Layer 1"
     inkscape:groupmode="layer"
     id="layer1"
     transform="translate(-9.6645843,-70.537501)">
    <path
       d="M 0.00298338,168.732 C 0.323677,74.5725 25.6544,-0.967331 56.5806,0.0090664 87.2804,0.978312 112,77.025 112,170.5"
       stroke="#000000"
       stroke-width="8"
       stroke-miterlimit="8"
       fill="none"
       fill-rule="evenodd"
       transform="matrix(-0.26458333,0,0,0.26458333,87.716667,92.233335)"
       id="path159"
       clip-path="url(#clipPath2491)" />
    <path
       d="m 794.994,303.063 c -0.425,55.498 -22.929,99.788 -50.264,98.925 C 717.696,401.134 696,356.395 696,301.5"
       stroke="#000000"
       stroke-width="8"
       stroke-miterlimit="8"
       fill="none"
       fill-rule="evenodd"
       id="path161"
       transform="matrix(0.26458333,0,0,0.26458333,-96.433331,55.720835)"
       clip-path="url(#clipPath2487)" />
    <path
       d="M 0.00658356,68.7373 C 0.405071,30.0837 18.6338,-0.685959 40.7216,0.011393 62.5282,0.699867 80.0001,31.8323 80.0001,70"
       stroke="#000000"
       stroke-width="8"
       stroke-miterlimit="8"
       fill="none"
       fill-rule="evenodd"
       transform="matrix(-0.26458333,0,0,0.26458333,135.07708,117.36875)"
       id="path163"
       clip-path="url(#clipPath2483)" />
    <path
       d="M 0.00593504,98.9373 C 0.431,43.4394 22.9348,-0.850917 50.2696,0.0120924 77.3043,0.865629 98.9999,45.6046 98.9999,100.5"
       stroke="#000000"
       stroke-width="8"
       stroke-miterlimit="8"
       fill="none"
       fill-rule="evenodd"
       transform="matrix(0.26458333,0,0,-0.26458333,31.889584,162.08333)"
       id="path165"
       clip-path="url(#clipPath2479)" />
    <path
       d="m 405.007,301.737 c 0.398,-38.653 18.627,-69.423 40.715,-68.726 C 467.528,233.7 485,264.832 485,303"
       stroke="#000000"
       stroke-width="8"
       stroke-miterlimit="8"
       fill="none"
       fill-rule="evenodd"
       id="path167"
       transform="matrix(0.26458333,0,0,0.26458333,-96.433331,55.720835)"
       clip-path="url(#clipPath2475)" />
    <path
       d="M 585,280 H 694.102"
       stroke="#000000"
       stroke-width="8"
       stroke-miterlimit="8"
       fill="none"
       fill-rule="evenodd"
       id="path169"
       transform="matrix(0.26458333,0,0,0.26458333,-96.433331,55.720835)"
       clip-path="url(#clipPath2471)" />
    <path
       d="M 405,295.5 C 405,165.437 510.213,60 640,60 769.787,60 875,165.437 875,295.5 875,425.563 769.787,531 640,531 510.213,531 405,425.563 405,295.5 Z"
       stroke="#000000"
       stroke-width="8"
       stroke-miterlimit="8"
       fill="none"
       fill-rule="evenodd"
       id="path171"
       transform="matrix(0.26458333,0,0,0.26458333,-96.433331,55.720835)"
       clip-path="url(#clipPath2467)" />
  </g>
</svg>
