<?xml version="1.0" encoding="UTF-8" standalone="no"?>
<!-- Created with Inkscape (http://www.inkscape.org/) -->

<svg
   width="126.47083mm"
   height="158.75mm"
   viewBox="0 0 126.47083 158.75"
   version="1.1"
   id="svg5"
   inkscape:version="1.2 (dc2aedaf03, 2022-05-15)"
   sodipodi:docname="AOUMI_LOGO_WITH_TEXT.svg"
   xmlns:inkscape="http://www.inkscape.org/namespaces/inkscape"
   xmlns:sodipodi="http://sodipodi.sourceforge.net/DTD/sodipodi-0.dtd"
   xmlns="http://www.w3.org/2000/svg"
   xmlns:svg="http://www.w3.org/2000/svg">
  <sodipodi:namedview
     id="namedview7"
     pagecolor="#505050"
     bordercolor="#eeeeee"
     borderopacity="1"
     inkscape:showpageshadow="0"
     inkscape:pageopacity="0"
     inkscape:pagecheckerboard="0"
     inkscape:deskcolor="#505050"
     inkscape:document-units="mm"
     showgrid="false"
     inkscape:zoom="1.1086736"
     inkscape:cx="366.65435"
     inkscape:cy="308.47672"
     inkscape:window-width="1920"
     inkscape:window-height="1009"
     inkscape:window-x="2552"
     inkscape:window-y="-8"
     inkscape:window-maximized="1"
     inkscape:current-layer="layer1" />
  <defs
     id="defs2">
    <inkscape:path-effect
       effect="powerclip"
       id="path-effect547"
       is_visible="true"
       lpeversion="1"
       inverse="true"
       flatten="false"
       hide_clip="false"
       message="Use fill-rule evenodd on &lt;b&gt;fill and stroke&lt;/b&gt; dialog if no flatten result after convert clip to paths." />
    <inkscape:path-effect
       effect="powerclip"
       id="path-effect539"
       is_visible="true"
       lpeversion="1"
       inverse="true"
       flatten="false"
       hide_clip="false"
       message="Use fill-rule evenodd on &lt;b&gt;fill and stroke&lt;/b&gt; dialog if no flatten result after convert clip to paths." />
    <inkscape:path-effect
       effect="powerclip"
       id="path-effect509"
       is_visible="true"
       lpeversion="1"
       inverse="true"
       flatten="false"
       hide_clip="false"
       message="Use fill-rule evenodd on &lt;b&gt;fill and stroke&lt;/b&gt; dialog if no flatten result after convert clip to paths." />
    <clipPath
       clipPathUnits="userSpaceOnUse"
       id="clipPath377">
      <rect
         x="401"
         y="56.000015"
         width="478"
         height="648"
         id="rect379"
         style="stroke-width:0.999999" />
    </clipPath>
    <clipPath
       clipPathUnits="userSpaceOnUse"
       id="clipPath381">
      <rect
         x="401"
         y="56.000015"
         width="478"
         height="648"
         id="rect383"
         style="stroke-width:0.999999" />
    </clipPath>
    <clipPath
       clipPathUnits="userSpaceOnUse"
       id="clipPath385">
      <rect
         x="401"
         y="56.000015"
         width="478"
         height="648"
         id="rect387"
         style="stroke-width:0.999999" />
    </clipPath>
    <clipPath
       clipPathUnits="userSpaceOnUse"
       id="clipPath389">
      <rect
         x="-84.000008"
         y="-346"
         width="478"
         height="648"
         id="rect391"
         style="stroke-width:0.999999"
         transform="scale(1,-1)" />
    </clipPath>
    <clipPath
       clipPathUnits="userSpaceOnUse"
       id="clipPath393">
      <rect
         x="-474"
         y="-177"
         width="478"
         height="648"
         id="rect395"
         style="stroke-width:0.999999"
         transform="scale(-1,1)" />
    </clipPath>
    <clipPath
       clipPathUnits="userSpaceOnUse"
       id="clipPath397">
      <rect
         x="401"
         y="56.000015"
         width="478"
         height="648"
         id="rect399"
         style="stroke-width:0.999999" />
    </clipPath>
    <clipPath
       clipPathUnits="userSpaceOnUse"
       id="clipPath401">
      <rect
         x="-295.00003"
         y="-81.999985"
         width="478"
         height="648"
         id="rect403"
         style="stroke-width:0.999999"
         transform="scale(-1,1)" />
    </clipPath>
    <clipPath
       clipPathUnits="userSpaceOnUse"
       id="clipPath405">
      <rect
         x="401"
         y="56.000015"
         width="478"
         height="648"
         id="rect407"
         style="stroke-width:0.999999" />
    </clipPath>
    <clipPath
       clipPathUnits="userSpaceOnUse"
       id="clipPath409">
      <rect
         x="401"
         y="56.000015"
         width="478"
         height="648"
         id="rect411"
         style="stroke-width:0.999999" />
    </clipPath>
    <clipPath
       clipPathUnits="userSpaceOnUse"
       id="clipPath413">
      <rect
         x="401"
         y="56.000015"
         width="478"
         height="648"
         id="rect415"
         style="stroke-width:0.999999" />
    </clipPath>
    <clipPath
       clipPathUnits="userSpaceOnUse"
       id="clipPath417">
      <rect
         x="401"
         y="56.000015"
         width="478"
         height="648"
         id="rect419"
         style="stroke-width:0.999999" />
    </clipPath>
    <clipPath
       clipPathUnits="userSpaceOnUse"
       id="clipPath421">
      <rect
         x="401"
         y="56.000015"
         width="478"
         height="648"
         id="rect423"
         style="stroke-width:0.999999" />
    </clipPath>
    <clipPath
       clipPathUnits="userSpaceOnUse"
       id="clipPath433">
      <rect
         x="401"
         y="56.000015"
         width="478"
         height="648"
         id="rect435"
         style="stroke-width:0.999999" />
    </clipPath>
    <clipPath
       clipPathUnits="userSpaceOnUse"
       id="clipPath505">
      <rect
         x="468"
         y="511"
         width="343.99997"
         height="49"
         fill="#ffffff"
         id="rect507"
         style="display:none;stroke-width:0.999999"
         d="m 468,511 h 343.99997 v 49 H 468 Z" />
      <path
         id="lpe_path-effect509"
         style="stroke-width:0.999999"
         class="powerclip"
         d="m 608,530 h 69 V 661 H 608 Z M 468,511 v 49 h 343.99997 v -49 z" />
    </clipPath>
    <clipPath
       clipPathUnits="userSpaceOnUse"
       id="clipPath535">
      <rect
         x="468"
         y="656.00006"
         width="343.99997"
         height="48"
         fill="#ffffff"
         id="rect537"
         style="display:none;stroke-width:0.999999"
         d="m 468,656.00006 h 343.99997 v 48 H 468 Z" />
      <path
         id="lpe_path-effect539"
         style="stroke-width:0.999999"
         class="powerclip"
         d="m 679,554 h 68 V 689 H 679 Z M 468,656.00006 v 48 h 343.99997 v -48 z" />
    </clipPath>
    <clipPath
       clipPathUnits="userSpaceOnUse"
       id="clipPath543">
      <rect
         x="468"
         y="656.00006"
         width="343.99997"
         height="48"
         fill="#ffffff"
         id="rect545"
         style="display:none;stroke-width:0.999999"
         d="m 468,656.00006 h 343.99997 v 48 H 468 Z" />
      <path
         id="lpe_path-effect547"
         style="stroke-width:0.999999"
         class="powerclip"
         d="m 466,554 h 69 v 135 h -69 z m 2,102.00006 v 48 h 343.99997 v -48 z" />
    </clipPath>
  </defs>
  <g
     inkscape:label="Layer 1"
     inkscape:groupmode="layer"
     id="layer1"
     transform="translate(-47.127084,-131.625)">
    <path
       d="M 475,583.689 C 475,572.263 484.263,563 495.689,563 h 9.622 c 11.426,0 20.689,9.263 20.689,20.689 v 75.622 C 526,670.737 516.737,680 505.311,680 h -9.622 C 484.263,680 475,670.737 475,659.311 Z"
       stroke="#000000"
       stroke-width="8"
       stroke-miterlimit="8"
       fill="none"
       fill-rule="evenodd"
       id="path137"
       transform="matrix(0.26458333,0,0,0.26458333,-58.970831,116.80833)"
       clip-path="url(#clipPath543)"
       inkscape:path-effect="#path-effect547"
       inkscape:original-d="M 475,583.689 C 475,572.263 484.263,563 495.689,563 h 9.622 c 11.426,0 20.689,9.263 20.689,20.689 v 75.622 C 526,670.737 516.737,680 505.311,680 h -9.622 C 484.263,680 475,670.737 475,659.311 Z" />
    <path
       d="M 546,583.689 C 546,572.263 555.263,563 566.689,563 h 9.622 c 11.426,0 20.689,9.263 20.689,20.689 v 47.622 C 597,642.737 587.737,652 576.311,652 h -9.622 C 555.263,652 546,642.737 546,631.311 Z"
       stroke="#000000"
       stroke-width="8"
       stroke-miterlimit="8"
       fill="none"
       fill-rule="evenodd"
       id="path139"
       transform="matrix(0.26458333,0,0,0.26458333,-58.970831,116.80833)"
       clip-path="url(#clipPath433)" />
    <path
       d="M 617,559.689 C 617,548.263 626.263,539 637.689,539 h 9.622 c 11.426,0 20.689,9.263 20.689,20.689 v 71.622 C 668,642.737 658.737,652 647.311,652 h -9.622 C 626.263,652 617,642.737 617,631.311 Z"
       stroke="#000000"
       stroke-width="8"
       stroke-miterlimit="8"
       fill="none"
       fill-rule="evenodd"
       id="path141"
       transform="matrix(0.26458333,0,0,0.26458333,-58.970831,116.80833)"
       clip-path="url(#clipPath505)"
       inkscape:path-effect="#path-effect509"
       inkscape:original-d="M 617,559.689 C 617,548.263 626.263,539 637.689,539 h 9.622 c 11.426,0 20.689,9.263 20.689,20.689 v 71.622 C 668,642.737 658.737,652 647.311,652 h -9.622 C 626.263,652 617,642.737 617,631.311 Z" />
    <path
       d="M 688,583.283 C 688,572.081 697.081,563 708.283,563 h 9.434 c 11.202,0 20.283,9.081 20.283,20.283 v 76.434 C 738,670.919 728.919,680 717.717,680 h -9.434 C 697.081,680 688,670.919 688,659.717 Z"
       stroke="#000000"
       stroke-width="8"
       stroke-miterlimit="8"
       fill="none"
       fill-rule="evenodd"
       id="path143"
       transform="matrix(0.26458333,0,0,0.26458333,-58.970831,116.80833)"
       clip-path="url(#clipPath535)"
       inkscape:path-effect="#path-effect539"
       inkscape:original-d="M 688,583.283 C 688,572.081 697.081,563 708.283,563 h 9.434 c 11.202,0 20.283,9.081 20.283,20.283 v 76.434 C 738,670.919 728.919,680 717.717,680 h -9.434 C 697.081,680 688,670.919 688,659.717 Z" />
    <path
       d="m 756,563 h 56.21"
       stroke="#000000"
       stroke-width="8"
       stroke-miterlimit="8"
       fill="none"
       fill-rule="evenodd"
       id="path145"
       transform="matrix(0.26458333,0,0,0.26458333,-58.970831,116.80833)"
       clip-path="url(#clipPath421)" />
    <path
       d="m 756,652 h 56.21"
       stroke="#000000"
       stroke-width="8"
       stroke-miterlimit="8"
       fill="none"
       fill-rule="evenodd"
       id="path147"
       transform="matrix(0.26458333,0,0,0.26458333,-58.970831,116.80833)"
       clip-path="url(#clipPath417)" />
    <path
       d="m 784,563 v 89.446"
       stroke="#000000"
       stroke-width="8"
       stroke-miterlimit="8"
       fill="none"
       fill-rule="evenodd"
       id="path149"
       transform="matrix(0.26458333,0,0,0.26458333,-58.970831,116.80833)"
       clip-path="url(#clipPath413)" />
    <path
       d="m 473,612 h 56.21"
       stroke="#000000"
       stroke-width="8"
       stroke-miterlimit="8"
       fill="none"
       fill-rule="evenodd"
       id="path151"
       transform="matrix(0.26458333,0,0,0.26458333,-58.970831,116.80833)"
       clip-path="url(#clipPath409)" />
    <path
       d="m 713,563 v 92.772"
       stroke="#000000"
       stroke-width="8"
       stroke-miterlimit="8"
       fill="none"
       fill-rule="evenodd"
       id="path153"
       transform="matrix(0.26458333,0,0,0.26458333,-58.970831,116.80833)"
       clip-path="url(#clipPath405)" />
    <path
       d="M 0.00298338,168.732 C 0.323677,74.5725 25.6544,-0.967331 56.5806,0.0090664 87.2804,0.978312 112,77.025 112,170.5"
       stroke="#000000"
       stroke-width="8"
       stroke-miterlimit="8"
       fill="none"
       fill-rule="evenodd"
       transform="matrix(-0.26458333,0,0,0.26458333,125.17917,153.32083)"
       id="path159"
       clip-path="url(#clipPath401)" />
    <path
       d="m 794.994,303.063 c -0.425,55.498 -22.929,99.788 -50.264,98.925 C 717.696,401.134 696,356.395 696,301.5"
       stroke="#000000"
       stroke-width="8"
       stroke-miterlimit="8"
       fill="none"
       fill-rule="evenodd"
       id="path161"
       transform="matrix(0.26458333,0,0,0.26458333,-58.970831,116.80833)"
       clip-path="url(#clipPath397)" />
    <path
       d="M 0.00658356,68.7373 C 0.405071,30.0837 18.6338,-0.685959 40.7216,0.011393 62.5282,0.699867 80.0001,31.8323 80.0001,70"
       stroke="#000000"
       stroke-width="8"
       stroke-miterlimit="8"
       fill="none"
       fill-rule="evenodd"
       transform="matrix(-0.26458333,0,0,0.26458333,172.53958,178.45625)"
       id="path163"
       clip-path="url(#clipPath393)" />
    <path
       d="M 0.00593504,98.9373 C 0.431,43.4394 22.9348,-0.850917 50.2696,0.0120924 77.3043,0.865629 98.9999,45.6046 98.9999,100.5"
       stroke="#000000"
       stroke-width="8"
       stroke-miterlimit="8"
       fill="none"
       fill-rule="evenodd"
       transform="matrix(0.26458333,0,0,-0.26458333,69.352084,223.17083)"
       id="path165"
       clip-path="url(#clipPath389)" />
    <path
       d="m 405.007,301.737 c 0.398,-38.653 18.627,-69.423 40.715,-68.726 C 467.528,233.7 485,264.832 485,303"
       stroke="#000000"
       stroke-width="8"
       stroke-miterlimit="8"
       fill="none"
       fill-rule="evenodd"
       id="path167"
       transform="matrix(0.26458333,0,0,0.26458333,-58.970831,116.80833)"
       clip-path="url(#clipPath385)" />
    <path
       d="M 585,280 H 694.102"
       stroke="#000000"
       stroke-width="8"
       stroke-miterlimit="8"
       fill="none"
       fill-rule="evenodd"
       id="path169"
       transform="matrix(0.26458333,0,0,0.26458333,-58.970831,116.80833)"
       clip-path="url(#clipPath381)" />
    <path
       d="M 405,295.5 C 405,165.437 510.213,60 640,60 769.787,60 875,165.437 875,295.5 875,425.563 769.787,531 640,531 510.213,531 405,425.563 405,295.5 Z"
       stroke="#000000"
       stroke-width="8"
       stroke-miterlimit="8"
       fill="none"
       fill-rule="evenodd"
       id="path171"
       transform="matrix(0.26458333,0,0,0.26458333,-58.970831,116.80833)"
       clip-path="url(#clipPath377)" />
  </g>
</svg>
